<svg xmlns="http://www.w3.org/2000/svg" width="100" height="100" viewBox="0 0 512 512" style="overflow: visible;" data-bbox="27.956 209.381 456.088 93.238"><defs transform="matrix(0.8029186712760903, 0, 0, 0.8029186712760903, 50.4527906441067, 50.45278688467035)" data-uid="o_f84ne9igh_5"><radialGradient x1="0%" y1="50%" x2="100%" y2="50%" id="g_1626503464_0" gradientUnits="objectBoundingBox" data-uid="o_f84ne9igh_471"><stop offset="66%" stop-color="rgb(0, 133, 194)" stop-opacity="1.00" data-uid="o_f84ne9igh_472"></stop><stop offset="75%" stop-color="rgb(126, 193, 224)" stop-opacity="1.00" data-uid="o_f84ne9igh_473"></stop><stop offset="100%" stop-color="rgb(255, 255, 255)" stop-opacity="1" data-uid="o_f84ne9igh_502"></stop></radialGradient></defs><g transform="matrix(0.1358872759066316, 0, 0, 0.1358872759066316, 25.376517315359933, 212.79221944356001)" fill="url(#g_1626503464_0)" data-uid="o_f84ne9igh_9" stroke="#0085c2"><g fill="url(#g_1626503464_0)" data-uid="o_f84ne9igh_10"><path d="m101.993 70.331c-17.459 0-31.663 14.204-31.663 31.663s14.204 31.663 31.663 31.663 31.663-14.204 31.663-31.663-14.204-31.663-31.663-31.663z" fill="url(#g_1626503464_0)" transform="matrix(1, 0, 0, 1, 0, 0)" data-uid="o_f84ne9igh_11" stroke="#0085c2"></path><path d="m410.007 378.344c-17.459 0-31.663 14.204-31.663 31.663s14.204 31.663 31.663 31.663 31.663-14.204 31.663-31.663-14.204-31.663-31.663-31.663z" fill="url(#g_1626503464_0)" transform="matrix(1, 0, 0, 1, 0, 0)" data-uid="o_f84ne9igh_12" stroke="#0085c2"></path><path d="m101.993 378.344c-17.459 0-31.663 14.204-31.663 31.663s14.204 31.663 31.663 31.663 31.663-14.204 31.663-31.663-14.204-31.663-31.663-31.663z" fill="url(#g_1626503464_0)" transform="matrix(1, 0, 0, 1, 0, 0)" data-uid="o_f84ne9igh_13" stroke="#0085c2"></path><path fill="url(#g_1626503464_0)" transform="matrix(1, 0, 0, 1, 0, 0)" data-type="circle" data-cx="410.007" data-cy="101.993" data-r="31.663" d="M410.007 101.993m-31.663 0a31.663 31.663 0 1 0 63.326 0a31.663 31.663 0 1 0 -63.326 0" data-uid="o_f84ne9igh_14" stroke="#0085c2"></path><path d="m23.537 178.988c-12.978 0-23.537 10.558-23.537 23.536 0 12.979 10.559 23.537 23.537 23.537s23.537-10.559 23.537-23.537-10.558-23.536-23.537-23.536z" fill="url(#g_1626503464_0)" transform="matrix(1, 0, 0, 1, 0, 0)" data-uid="o_f84ne9igh_15" stroke="#0085c2"></path><path d="m488.463 226.062c12.979 0 23.537-10.559 23.537-23.537s-10.559-23.537-23.537-23.537-23.537 10.559-23.537 23.537 10.558 23.537 23.537 23.537z" fill="url(#g_1626503464_0)" transform="matrix(1, 0, 0, 1, 0, 0)" data-uid="o_f84ne9igh_16" stroke="#0085c2"></path><path d="m23.537 285.938c-12.978 0-23.537 10.559-23.537 23.538 0 12.978 10.559 23.537 23.537 23.537s23.537-10.559 23.537-23.537c0-12.979-10.558-23.538-23.537-23.538z" fill="url(#g_1626503464_0)" transform="matrix(1, 0, 0, 1, 0, 0)" data-uid="o_f84ne9igh_17" stroke="#0085c2"></path><path d="m488.463 285.938c-12.979 0-23.537 10.559-23.537 23.537s10.559 23.537 23.537 23.537 23.537-10.558 23.537-23.536c0-12.979-10.559-23.538-23.537-23.538z" fill="url(#g_1626503464_0)" transform="matrix(1, 0, 0, 1, 0, 0)" data-uid="o_f84ne9igh_18" stroke="#0085c2"></path><path fill="url(#g_1626503464_0)" transform="matrix(1, 0, 0, 1, 0, 0)" data-type="circle" data-cx="309.476" data-cy="23.537" data-r="23.537" d="M309.476 23.537m-23.537 0a23.537 23.537 0 1 0 47.074 0a23.537 23.537 0 1 0 -47.074 0" data-uid="o_f84ne9igh_19" stroke="#0085c2"></path><path fill="url(#g_1626503464_0)" transform="matrix(1, 0, 0, 1, 0, 0)" data-type="circle" data-cx="309.476" data-cy="488.463" data-r="23.537" d="M309.476 488.463m-23.537 0a23.537 23.537 0 1 0 47.074 0a23.537 23.537 0 1 0 -47.074 0" data-uid="o_f84ne9igh_20" stroke="#0085c2"></path><path d="m202.524 464.926c-12.978 0-23.537 10.559-23.537 23.537s10.559 23.537 23.537 23.537c12.979 0 23.537-10.559 23.537-23.537s-10.558-23.537-23.537-23.537z" fill="url(#g_1626503464_0)" transform="matrix(1, 0, 0, 1, 0, 0)" data-uid="o_f84ne9igh_21" stroke="#0085c2"></path><path d="m202.524 47.074c12.979 0 23.537-10.559 23.537-23.537.001-12.978-10.558-23.537-23.537-23.537-12.978 0-23.537 10.559-23.537 23.537.001 12.978 10.559 23.537 23.537 23.537z" fill="url(#g_1626503464_0)" transform="matrix(1, 0, 0, 1, 0, 0)" data-uid="o_f84ne9igh_22" stroke="#0085c2"></path></g><g fill="url(#g_1626503464_0)" data-uid="o_f84ne9igh_23"><path d="m101.993 170.862c-17.459 0-31.663 14.204-31.663 31.663s14.204 31.663 31.663 31.663 31.663-14.204 31.663-31.663-14.204-31.663-31.663-31.663z" fill="url(#g_1626503464_0)" transform="matrix(1, 0, 0, 1, 0, 0)" data-uid="o_f84ne9igh_24" stroke="#0085c2"></path><path d="m410.007 170.862c-17.459 0-31.663 14.204-31.663 31.663s14.204 31.663 31.663 31.663 31.663-14.204 31.663-31.663-14.204-31.663-31.663-31.663z" fill="url(#g_1626503464_0)" transform="matrix(1, 0, 0, 1, 0, 0)" data-uid="o_f84ne9igh_25" stroke="#0085c2"></path><path d="m101.993 277.813c-17.459 0-31.663 14.204-31.663 31.663s14.204 31.663 31.663 31.663 31.663-14.204 31.663-31.663-14.204-31.663-31.663-31.663z" fill="url(#g_1626503464_0)" transform="matrix(1, 0, 0, 1, 0, 0)" data-uid="o_f84ne9igh_26" stroke="#0085c2"></path><path d="m410.007 277.813c-17.459 0-31.663 14.204-31.663 31.663s14.204 31.663 31.663 31.663 31.663-14.204 31.663-31.663-14.204-31.663-31.663-31.663z" fill="url(#g_1626503464_0)" transform="matrix(1, 0, 0, 1, 0, 0)" data-uid="o_f84ne9igh_27" stroke="#0085c2"></path><path d="m309.476 133.656c17.459 0 31.662-14.204 31.662-31.663s-14.203-31.663-31.662-31.663-31.663 14.204-31.663 31.663 14.204 31.663 31.663 31.663z" fill="url(#g_1626503464_0)" transform="matrix(1, 0, 0, 1, 0, 0)" data-uid="o_f84ne9igh_28" stroke="#0085c2"></path><path d="m309.476 378.344c-17.459 0-31.663 14.204-31.663 31.663s14.204 31.663 31.663 31.663 31.662-14.204 31.662-31.663-14.203-31.663-31.662-31.663z" fill="url(#g_1626503464_0)" transform="matrix(1, 0, 0, 1, 0, 0)" data-uid="o_f84ne9igh_29" stroke="#0085c2"></path><path d="m202.524 133.656c17.459 0 31.663-14.204 31.663-31.663s-14.204-31.663-31.663-31.663-31.663 14.204-31.663 31.663 14.204 31.663 31.663 31.663z" fill="url(#g_1626503464_0)" transform="matrix(1, 0, 0, 1, 0, 0)" data-uid="o_f84ne9igh_30" stroke="#0085c2"></path><path d="m202.524 378.344c-17.459 0-31.663 14.204-31.663 31.663s14.204 31.663 31.663 31.663 31.663-14.204 31.663-31.663-14.204-31.663-31.663-31.663z" fill="url(#g_1626503464_0)" transform="matrix(1, 0, 0, 1, 0, 0)" data-uid="o_f84ne9igh_31" stroke="#0085c2"></path></g><g fill="url(#g_1626503464_0)" data-uid="o_f84ne9igh_32"><path transform="matrix(0.7896926403045654, -0.18666939437389374, 0.18666939437389374, 0.7896926403045654, 5.233527183532715, 83.3380355834961)" fill="url(#g_1626503464_0)" data-cx="202.525" data-cy="202.525" data-rx="48.358" data-ry="48.358" d="M154.167 202.525 C154.167 175.8176140691716 175.8176140691716 154.167 202.525 154.167 C229.2323859308284 154.167 250.883 175.8176140691716 250.883 202.525 C250.883 229.2323859308284 229.2323859308284 250.883 202.525 250.883 C175.8176140691716 250.883 154.167 229.2323859308284 154.167 202.525 Z" data-uid="o_f84ne9igh_33" stroke="#0085c2"></path><path d="m309.476 261.117c-26.665 0-48.358 21.693-48.358 48.358s21.693 48.358 48.358 48.358c26.664 0 48.357-21.693 48.357-48.358 0-26.664-21.693-48.358-48.357-48.358z" fill="url(#g_1626503464_0)" transform="matrix(0.8114304542541504, 0.016877448186278343, -0.016877448186278343, 0.8114304542541504, 63.878543853759766, 54.00707244873047)" data-uid="o_f84ne9igh_34" stroke="#0085c2"></path><path transform="matrix(0.5738055109977722, -0.5738055109977722, 0.5738055109977722, 0.5738055109977722, -90.86143493652344, 248.969970703125)" fill="url(#g_1626503464_0)" data-cx="202.525" data-cy="309.475" data-rx="48.358" data-ry="48.358" d="M154.167 309.475 C154.167 282.7676140691716 175.8176140691716 261.117 202.525 261.117 C229.2323859308284 261.117 250.883 282.7676140691716 250.883 309.475 C250.883 336.18238593082845 229.2323859308284 357.833 202.525 357.833 C175.8176140691716 357.833 154.167 336.18238593082845 154.167 309.475 Z" data-uid="o_f84ne9igh_35" stroke="#0085c2"></path><path d="m309.476 154.167c-26.665 0-48.358 21.693-48.358 48.358s21.693 48.358 48.358 48.358c26.664 0 48.357-21.693 48.357-48.358s-21.693-48.358-48.357-48.358z" fill="url(#g_1626503464_0)" transform="matrix(0.8116059303283691, 0, 0, 0.8116059303283691, 58.60108184814453, 41.1759147644043)" data-uid="o_f84ne9igh_36" stroke="#0085c2"></path></g></g><path text="seeabooks" fill="#0085c2" space="preserve" text-anchor="start" offset="0" font-scale="contain" font-size="48" font-family="Kodchasan" transform="matrix(1.6287600627333652, 0, 0, 1.6287600627333652, 102.62049380047594, 274.46242198601084)" font-style="normal" font-weight="400" letter-spacing="-2" data-fl-textpath="" data-uid="o_f84ne9igh_37" d="M 13.58 0.48Q 10.22 0.48  7.25-0.79Q 4.27-2.06  2.54-4.32L 2.54-4.32Q 2.21-4.8  2.21-5.28L 2.21-5.28Q 2.21-5.76  2.47-6.12Q 2.74-6.48  3.17-6.67L 3.17-6.67Q 3.55-6.82  3.79-6.82L 3.79-6.82Q 4.22-6.82  4.54-6.6Q 4.85-6.38  5.28-5.9L 5.28-5.9Q 8.4-2.59  13.58-2.59L 13.58-2.59Q 16.08-2.59  17.62-3.46Q 19.15-4.32  19.15-5.86L 19.15-5.86Q 19.15-6.96  18.55-7.66Q 17.95-8.35  16.54-8.95Q 15.12-9.55  11.9-10.66L 11.9-10.66Q 8.78-11.71  7.01-12.67Q 5.23-13.63  4.37-14.86Q 3.5-16.08  3.5-17.86L 3.5-17.86Q 3.5-20.64  5.93-22.32Q 8.35-24  12.38-24L 12.38-24Q 15.36-24  17.9-22.97Q 20.45-21.94  21.74-20.21L 21.74-20.21Q 22.13-19.68  22.13-19.2L 22.13-19.2Q 22.13-18.48  21.36-18.05L 21.36-18.05Q 20.88-17.76  20.4-17.76L 20.4-17.76Q 19.58-17.76  18.86-18.48L 18.86-18.48Q 17.62-19.73  16.13-20.33Q 14.64-20.93  12.34-20.93L 12.34-20.93Q 9.79-20.93  8.45-20.11Q 7.1-19.3  7.1-17.81L 7.1-17.81Q 7.1-16.7  7.66-16.06Q 8.21-15.41  9.43-14.9Q 10.66-14.4  13.73-13.39L 13.73-13.39Q 17.18-12.24  19.08-11.21Q 20.98-10.18  21.82-8.93Q 22.66-7.68  22.66-5.86L 22.66-5.86Q 22.66-2.98  20.14-1.25Q 17.62 0.48  13.58 0.48L 13.58 0.48ZM 37.936 0.48Q 31.696 0.48  28.286-2.74Q 24.876-5.95  24.876-11.86L 24.876-11.86Q 24.876-17.52  28.336-20.76Q 31.796-24  37.796-24L 37.796-24Q 41.486-24  44.366-22.82Q 47.246-21.65  48.856-19.51Q 50.466-17.38  50.466-14.64L 50.466-14.64Q 50.466-12.62  49.336-11.52Q 48.206-10.42  46.236-10.42L 46.236-10.42L 28.476-10.42Q 28.476-6.72  30.976-4.63Q 33.476-2.54  37.936-2.54L 37.936-2.54Q 40.676-2.54  42.636-3.14Q 44.606-3.74  46.336-5.09L 46.336-5.09Q 47.246-5.86  47.826-5.86L 47.826-5.86Q 48.256-5.86  48.636-5.47L 48.636-5.47Q 49.316-4.9  49.316-4.27L 49.316-4.27Q 49.316-3.79  48.736-3.22L 48.736-3.22Q 46.766-1.34  44.126-0.43Q 41.486 0.48  37.936 0.48L 37.936 0.48ZM 28.576-13.25L 45.186-13.25Q 46.046-13.25  46.476-13.61Q 46.916-13.97  46.916-14.93L 46.916-14.93Q 46.916-16.66  45.756-18.05Q 44.606-19.44  42.516-20.21Q 40.436-20.98  37.796-20.98L 37.796-20.98Q 33.516-20.98  31.046-18.89Q 28.576-16.8  28.576-13.25L 28.576-13.25ZM 65.648 0.48Q 59.408 0.48  55.998-2.74Q 52.588-5.95  52.588-11.86L 52.588-11.86Q 52.588-17.52  56.048-20.76Q 59.508-24  65.508-24L 65.508-24Q 69.198-24  72.078-22.82Q 74.958-21.65  76.568-19.51Q 78.178-17.38  78.178-14.64L 78.178-14.64Q 78.178-12.62  77.048-11.52Q 75.918-10.42  73.948-10.42L 73.948-10.42L 56.188-10.42Q 56.188-6.72  58.688-4.63Q 61.188-2.54  65.648-2.54L 65.648-2.54Q 68.388-2.54  70.348-3.14Q 72.318-3.74  74.048-5.09L 74.048-5.09Q 74.958-5.86  75.538-5.86L 75.538-5.86Q 75.968-5.86  76.348-5.47L 76.348-5.47Q 77.028-4.9  77.028-4.27L 77.028-4.27Q 77.028-3.79  76.448-3.22L 76.448-3.22Q 74.478-1.34  71.838-0.43Q 69.198 0.48  65.648 0.48L 65.648 0.48ZM 56.288-13.25L 72.898-13.25Q 73.758-13.25  74.188-13.61Q 74.628-13.97  74.628-14.93L 74.628-14.93Q 74.628-16.66  73.468-18.05Q 72.318-19.44  70.228-20.21Q 68.148-20.98  65.508-20.98L 65.508-20.98Q 61.228-20.98  58.758-18.89Q 56.288-16.8  56.288-13.25L 56.288-13.25ZM 89.18 0.48Q 84.48 0.48  81.82-1.58Q 79.15-3.65  79.15-7.3L 79.15-7.3Q 79.15-10.9  81.96-13.01Q 84.77-15.12  89.62-15.12L 89.62-15.12Q 92.45-15.12  94.63-14.35Q 96.82-13.58  98.02-12.29L 98.02-12.29L 98.02-15.36Q 98.02-18.1  96.22-19.54Q 94.42-20.98  90.96-20.98L 90.96-20.98Q 86.5-20.98  83.23-18.86L 83.23-18.86Q 82.42-18.38  81.89-18.38L 81.89-18.38Q 81.41-18.38  80.93-18.77L 80.93-18.77Q 80.4-19.2  80.4-19.87L 80.4-19.87Q 80.4-20.59  81.02-21.07L 81.02-21.07Q 82.75-22.42  85.42-23.21Q 88.08-24  90.86-24L 90.86-24Q 95.95-24  98.76-21.7Q 101.57-19.39  101.57-15.22L 101.57-15.22L 101.57-1.39Q 101.57 0.48  99.84 0.48L 99.84 0.48Q 99.07 0.48  98.59-0.02Q 98.11-0.53  98.11-1.34L 98.11-1.34L 98.11-3.07Q 95.14 0.48  89.18 0.48L 89.18 0.48ZM 89.62-2.45Q 93.36-2.45  95.71-3.86Q 98.06-5.28  98.06-7.54L 98.06-7.54Q 98.06-9.79  95.88-11.02Q 93.7-12.24  89.71-12.24L 89.71-12.24Q 86.35-12.24  84.53-10.97Q 82.7-9.7  82.7-7.3L 82.7-7.3Q 82.7-4.94  84.48-3.7Q 86.26-2.45  89.62-2.45L 89.62-2.45ZM 107.728 0.48Q 106.908 0.48  106.458-0.02Q 105.998-0.53  105.998-1.44L 105.998-1.44L 105.998-34.51Q 105.998-35.42  106.458-35.93Q 106.908-36.43  107.728-36.43L 107.728-36.43Q 108.548-36.43  109.028-35.93Q 109.508-35.42  109.508-34.51L 109.508-34.51L 109.548-19.1Q 113.588-24  119.868-24L 119.868-24Q 123.758-24  126.638-22.51Q 129.518-21.02  131.078-18.26Q 132.638-15.5  132.638-11.76L 132.638-11.76Q 132.638-5.9  129.278-2.71Q 125.918 0.48  119.828 0.48L 119.828 0.48Q 113.058 0.48  109.508-4.51L 109.508-4.51L 109.508-1.44Q 109.508-0.58  109.048-0.05Q 108.588 0.48  107.728 0.48L 107.728 0.48ZM 119.588-2.54Q 124.288-2.54  126.688-4.87Q 129.088-7.2  129.088-11.76L 129.088-11.76Q 129.088-16.08  126.548-18.53Q 123.998-20.98  119.588-20.98L 119.588-20.98Q 116.708-20.98  114.398-19.8Q 112.098-18.62  110.798-16.51Q 109.508-14.4  109.508-11.76L 109.508-11.76Q 109.508-7.49  112.188-5.02Q 114.878-2.54  119.588-2.54L 119.588-2.54ZM 147.726 0.48Q 143.556 0.48  140.576-1.2Q 137.596-2.88  136.086-5.69Q 134.576-8.5  134.576-11.76L 134.576-11.76Q 134.576-15.02  136.086-17.83Q 137.596-20.64  140.576-22.32Q 143.556-24  147.726-24L 147.726-24Q 151.906-24  154.856-22.32Q 157.806-20.64  159.316-17.83Q 160.836-15.02  160.836-11.76L 160.836-11.76Q 160.836-8.5  159.316-5.69Q 157.806-2.88  154.856-1.2Q 151.906 0.48  147.726 0.48L 147.726 0.48ZM 147.726-2.54Q 152.046-2.54  154.666-4.99Q 157.276-7.44  157.276-11.76L 157.276-11.76Q 157.276-16.08  154.666-18.53Q 152.046-20.98  147.726-20.98L 147.726-20.98Q 143.356-20.98  140.746-18.53Q 138.126-16.08  138.126-11.76L 138.126-11.76Q 138.126-7.44  140.746-4.99Q 143.356-2.54  147.726-2.54L 147.726-2.54ZM 175.102 0.48Q 170.932 0.48  167.952-1.2Q 164.972-2.88  163.462-5.69Q 161.952-8.5  161.952-11.76L 161.952-11.76Q 161.952-15.02  163.462-17.83Q 164.972-20.64  167.952-22.32Q 170.932-24  175.102-24L 175.102-24Q 179.282-24  182.232-22.32Q 185.182-20.64  186.692-17.83Q 188.212-15.02  188.212-11.76L 188.212-11.76Q 188.212-8.5  186.692-5.69Q 185.182-2.88  182.232-1.2Q 179.282 0.48  175.102 0.48L 175.102 0.48ZM 175.102-2.54Q 179.422-2.54  182.042-4.99Q 184.652-7.44  184.652-11.76L 184.652-11.76Q 184.652-16.08  182.042-18.53Q 179.422-20.98  175.102-20.98L 175.102-20.98Q 170.732-20.98  168.122-18.53Q 165.502-16.08  165.502-11.76L 165.502-11.76Q 165.502-7.44  168.122-4.99Q 170.732-2.54  175.102-2.54L 175.102-2.54ZM 193.598 0.48Q 192.788 0.48  192.328-0.02Q 191.868-0.53  191.868-1.44L 191.868-1.44L 191.868-34.51Q 191.868-35.42  192.328-35.93Q 192.788-36.43  193.598-36.43L 193.598-36.43Q 194.418-36.43  194.898-35.93Q 195.378-35.42  195.378-34.51L 195.378-34.51L 195.378-13.01L 211.308-23.76Q 211.788-24.1  212.318-24.1L 212.318-24.1Q 213.138-24.1  213.518-23.42L 213.518-23.42Q 213.758-23.09  213.758-22.51L 213.758-22.51Q 213.758-21.65  212.988-21.17L 212.988-21.17L 204.398-15.46Q 208.578-12.62  210.878-9.24Q 213.188-5.86  214.048-1.39L 214.048-1.39Q 214.188-0.62  213.758-0.07Q 213.328 0.48  212.508 0.48L 212.508 0.48Q 210.928 0.48  210.638-0.86L 210.638-0.86Q 209.628-5.47  207.688-8.18Q 205.748-10.9  201.568-13.58L 201.568-13.58L 195.378-9.41L 195.378-1.44Q 195.378-0.58  194.918-0.05Q 194.468 0.48  193.598 0.48L 193.598 0.48ZM 226.684 0.48Q 223.324 0.48  220.354-0.79Q 217.374-2.06  215.644-4.32L 215.644-4.32Q 215.314-4.8  215.314-5.28L 215.314-5.28Q 215.314-5.76  215.574-6.12Q 215.844-6.48  216.274-6.67L 216.274-6.67Q 216.654-6.82  216.894-6.82L 216.894-6.82Q 217.324-6.82  217.644-6.6Q 217.954-6.38  218.384-5.9L 218.384-5.9Q 221.504-2.59  226.684-2.59L 226.684-2.59Q 229.184-2.59  230.724-3.46Q 232.254-4.32  232.254-5.86L 232.254-5.86Q 232.254-6.96  231.654-7.66Q 231.054-8.35  229.644-8.95Q 228.224-9.55  225.004-10.66L 225.004-10.66Q 221.884-11.71  220.114-12.67Q 218.334-13.63  217.474-14.86Q 216.604-16.08  216.604-17.86L 216.604-17.86Q 216.604-20.64  219.034-22.32Q 221.454-24  225.484-24L 225.484-24Q 228.464-24  231.004-22.97Q 233.554-21.94  234.844-20.21L 234.844-20.21Q 235.234-19.68  235.234-19.2L 235.234-19.2Q 235.234-18.48  234.464-18.05L 234.464-18.05Q 233.984-17.76  233.504-17.76L 233.504-17.76Q 232.684-17.76  231.964-18.48L 231.964-18.48Q 230.724-19.73  229.234-20.33Q 227.744-20.93  225.444-20.93L 225.444-20.93Q 222.894-20.93  221.554-20.11Q 220.204-19.3  220.204-17.81L 220.204-17.81Q 220.204-16.7  220.764-16.06Q 221.314-15.41  222.534-14.9Q 223.764-14.4  226.834-13.39L 226.834-13.39Q 230.284-12.24  232.184-11.21Q 234.084-10.18  234.924-8.93Q 235.764-7.68  235.764-5.86L 235.764-5.86Q 235.764-2.98  233.244-1.25Q 230.724 0.48  226.684 0.48L 226.684 0.48Z" style=""></path></svg>