<svg width="29" height="27" viewBox="0 0 29 27" fill="none" xmlns="http://www.w3.org/2000/svg">
<path d="M25.8337 13.4998H11.1878M22.7503 18.1248L27.3753 13.4998L22.7503 8.87484M15.042 5.7915V4.24984C15.042 3.43209 14.7171 2.64783 14.1389 2.06959C13.5607 1.49135 12.7764 1.1665 11.9587 1.1665H4.25033C3.43257 1.1665 2.64832 1.49135 2.07008 2.06959C1.49184 2.64783 1.16699 3.43209 1.16699 4.24984V22.7498C1.16699 23.5676 1.49184 24.3518 2.07008 24.9301C2.64832 25.5083 3.43257 25.8332 4.25033 25.8332H11.9587C12.7764 25.8332 13.5607 25.5083 14.1389 24.9301C14.7171 24.3518 15.042 23.5676 15.042 22.7498V21.2082" stroke="#585858" stroke-width="2" stroke-linecap="round" stroke-linejoin="round"/>
</svg>
