<svg xmlns="http://www.w3.org/2000/svg" xmlns:xlink="http://www.w3.org/1999/xlink" id="visual" viewBox="0 0 1920 1080" width="1920" height="1080" version="1.1"><path d="M0 87L35.5 88.8C71 90.7 142 94.3 213.2 89C284.3 83.7 355.7 69.3 426.8 62.2C498 55 569 55 640 56.8C711 58.7 782 62.3 853.2 73.2C924.3 84 995.7 102 1066.8 107.3C1138 112.7 1209 105.3 1280 92.7C1351 80 1422 62 1493.2 56.7C1564.3 51.3 1635.7 58.7 1706.8 65.8C1778 73 1849 80 1884.5 83.5L1920 87L1920 0L1884.5 0C1849 0 1778 0 1706.8 0C1635.7 0 1564.3 0 1493.2 0C1422 0 1351 0 1280 0C1209 0 1138 0 1066.8 0C995.7 0 924.3 0 853.2 0C782 0 711 0 640 0C569 0 498 0 426.8 0C355.7 0 284.3 0 213.2 0C142 0 71 0 35.5 0L0 0Z" fill="#73b0e1"/><path d="M0 390L35.5 370.2C71 350.3 142 310.7 213.2 307C284.3 303.3 355.7 335.7 426.8 333.8C498 332 569 296 640 290.7C711 285.3 782 310.7 853.2 359.3C924.3 408 995.7 480 1066.8 471C1138 462 1209 372 1280 328.8C1351 285.7 1422 289.3 1493.2 294.7C1564.3 300 1635.7 307 1706.8 321.3C1778 335.7 1849 357.3 1884.5 368.2L1920 379L1920 85L1884.5 81.5C1849 78 1778 71 1706.8 63.8C1635.7 56.7 1564.3 49.3 1493.2 54.7C1422 60 1351 78 1280 90.7C1209 103.3 1138 110.7 1066.8 105.3C995.7 100 924.3 82 853.2 71.2C782 60.3 711 56.7 640 54.8C569 53 498 53 426.8 60.2C355.7 67.3 284.3 81.7 213.2 87C142 92.3 71 88.7 35.5 86.8L0 85Z" fill="#95cbf2"/><path d="M0 627L35.5 623.5C71 620 142 613 213.2 614.8C284.3 616.7 355.7 627.3 426.8 625.5C498 623.7 569 609.3 640 620.2C711 631 782 667 853.2 692.2C924.3 717.3 995.7 731.7 1066.8 710C1138 688.3 1209 630.7 1280 585.7C1351 540.7 1422 508.3 1493.2 506.7C1564.3 505 1635.7 534 1706.8 550.2C1778 566.3 1849 569.7 1884.5 571.3L1920 573L1920 377L1884.5 366.2C1849 355.3 1778 333.7 1706.8 319.3C1635.7 305 1564.3 298 1493.2 292.7C1422 287.3 1351 283.7 1280 326.8C1209 370 1138 460 1066.8 469C995.7 478 924.3 406 853.2 357.3C782 308.7 711 283.3 640 288.7C569 294 498 330 426.8 331.8C355.7 333.7 284.3 301.3 213.2 305C142 308.7 71 348.3 35.5 368.2L0 388Z" fill="#b2daf8"/><path d="M0 757L35.5 751.7C71 746.3 142 735.7 213.2 726.7C284.3 717.7 355.7 710.3 426.8 699.5C498 688.7 569 674.3 640 681.5C711 688.7 782 717.3 853.2 740.7C924.3 764 995.7 782 1066.8 773C1138 764 1209 728 1280 692C1351 656 1422 620 1493.2 616.5C1564.3 613 1635.7 642 1706.8 654.7C1778 667.3 1849 663.7 1884.5 661.8L1920 660L1920 571L1884.5 569.3C1849 567.7 1778 564.3 1706.8 548.2C1635.7 532 1564.3 503 1493.2 504.7C1422 506.3 1351 538.7 1280 583.7C1209 628.7 1138 686.3 1066.8 708C995.7 729.7 924.3 715.3 853.2 690.2C782 665 711 629 640 618.2C569 607.3 498 621.7 426.8 623.5C355.7 625.3 284.3 614.7 213.2 612.8C142 611 71 618 35.5 621.5L0 625Z" fill="#bcdff9"/><path d="M0 854L35.5 854C71 854 142 854 213.2 846.8C284.3 839.7 355.7 825.3 426.8 820C498 814.7 569 818.3 640 829.2C711 840 782 858 853.2 865.2C924.3 872.3 995.7 868.7 1066.8 856C1138 843.3 1209 821.7 1280 796.5C1351 771.3 1422 742.7 1493.2 742.7C1564.3 742.7 1635.7 771.3 1706.8 780.3C1778 789.3 1849 778.7 1884.5 773.3L1920 768L1920 658L1884.5 659.8C1849 661.7 1778 665.3 1706.8 652.7C1635.7 640 1564.3 611 1493.2 614.5C1422 618 1351 654 1280 690C1209 726 1138 762 1066.8 771C995.7 780 924.3 762 853.2 738.7C782 715.3 711 686.7 640 679.5C569 672.3 498 686.7 426.8 697.5C355.7 708.3 284.3 715.7 213.2 724.7C142 733.7 71 744.3 35.5 749.7L0 755Z" fill="#b2daf8"/><path d="M0 951L35.5 952.8C71 954.7 142 958.3 213.2 967.3C284.3 976.3 355.7 990.7 426.8 987.2C498 983.7 569 962.3 640 953.3C711 944.3 782 947.7 853.2 954.8C924.3 962 995.7 973 1066.8 971.3C1138 969.7 1209 955.3 1280 933.7C1351 912 1422 883 1493.2 872.2C1564.3 861.3 1635.7 868.7 1706.8 875.8C1778 883 1849 890 1884.5 893.5L1920 897L1920 766L1884.5 771.3C1849 776.7 1778 787.3 1706.8 778.3C1635.7 769.3 1564.3 740.7 1493.2 740.7C1422 740.7 1351 769.3 1280 794.5C1209 819.7 1138 841.3 1066.8 854C995.7 866.7 924.3 870.3 853.2 863.2C782 856 711 838 640 827.2C569 816.3 498 812.7 426.8 818C355.7 823.3 284.3 837.7 213.2 844.8C142 852 71 852 35.5 852L0 852Z" fill="#95cbf2"/><path d="M0 1081L35.5 1081C71 1081 142 1081 213.2 1081C284.3 1081 355.7 1081 426.8 1081C498 1081 569 1081 640 1081C711 1081 782 1081 853.2 1081C924.3 1081 995.7 1081 1066.8 1081C1138 1081 1209 1081 1280 1081C1351 1081 1422 1081 1493.2 1081C1564.3 1081 1635.7 1081 1706.8 1081C1778 1081 1849 1081 1884.5 1081L1920 1081L1920 895L1884.5 891.5C1849 888 1778 881 1706.8 873.8C1635.7 866.7 1564.3 859.3 1493.2 870.2C1422 881 1351 910 1280 931.7C1209 953.3 1138 967.7 1066.8 969.3C995.7 971 924.3 960 853.2 952.8C782 945.7 711 942.3 640 951.3C569 960.3 498 981.7 426.8 985.2C355.7 988.7 284.3 974.3 213.2 965.3C142 956.3 71 952.7 35.5 950.8L0 949Z" fill="#73b0e1"/></svg>
