<svg xmlns="http://www.w3.org/2000/svg" xmlns:xlink="http://www.w3.org/1999/xlink" id="visual" viewBox="0 0 1920 1080" width="1920" height="1080" version="1.1"><path d="M0 971L22.8 966C45.7 961 91.3 951 137 949.8C182.7 948.7 228.3 956.3 274 953C319.7 949.7 365.3 935.3 411.2 925.8C457 916.3 503 911.7 548.8 920.2C594.7 928.7 640.3 950.3 686 960.3C731.7 970.3 777.3 968.7 823 958C868.7 947.3 914.3 927.7 960 922.5C1005.7 917.3 1051.3 926.7 1097 936.2C1142.7 945.7 1188.3 955.3 1234 956.5C1279.7 957.7 1325.3 950.3 1371.2 942.7C1417 935 1463 927 1508.8 928.5C1554.7 930 1600.3 941 1646 951C1691.7 961 1737.3 970 1783 969.5C1828.7 969 1874.3 959 1897.2 954L1920 949L1920 1081L1897.2 1081C1874.3 1081 1828.7 1081 1783 1081C1737.3 1081 1691.7 1081 1646 1081C1600.3 1081 1554.7 1081 1508.8 1081C1463 1081 1417 1081 1371.2 1081C1325.3 1081 1279.7 1081 1234 1081C1188.3 1081 1142.7 1081 1097 1081C1051.3 1081 1005.7 1081 960 1081C914.3 1081 868.7 1081 823 1081C777.3 1081 731.7 1081 686 1081C640.3 1081 594.7 1081 548.8 1081C503 1081 457 1081 411.2 1081C365.3 1081 319.7 1081 274 1081C228.3 1081 182.7 1081 137 1081C91.3 1081 45.7 1081 22.8 1081L0 1081Z" fill="#73b0e1"/><path d="M0 963L22.8 968.7C45.7 974.3 91.3 985.7 137 992C182.7 998.3 228.3 999.7 274 993.8C319.7 988 365.3 975 411.2 964.8C457 954.7 503 947.3 548.8 952.8C594.7 958.3 640.3 976.7 686 986.3C731.7 996 777.3 997 823 987.7C868.7 978.3 914.3 958.7 960 954.3C1005.7 950 1051.3 961 1097 969.8C1142.7 978.7 1188.3 985.3 1234 989C1279.7 992.7 1325.3 993.3 1371.2 985.2C1417 977 1463 960 1508.8 957C1554.7 954 1600.3 965 1646 968.3C1691.7 971.7 1737.3 967.3 1783 962.3C1828.7 957.3 1874.3 951.7 1897.2 948.8L1920 946L1920 1081L1897.2 1081C1874.3 1081 1828.7 1081 1783 1081C1737.3 1081 1691.7 1081 1646 1081C1600.3 1081 1554.7 1081 1508.8 1081C1463 1081 1417 1081 1371.2 1081C1325.3 1081 1279.7 1081 1234 1081C1188.3 1081 1142.7 1081 1097 1081C1051.3 1081 1005.7 1081 960 1081C914.3 1081 868.7 1081 823 1081C777.3 1081 731.7 1081 686 1081C640.3 1081 594.7 1081 548.8 1081C503 1081 457 1081 411.2 1081C365.3 1081 319.7 1081 274 1081C228.3 1081 182.7 1081 137 1081C91.3 1081 45.7 1081 22.8 1081L0 1081Z" fill="#90b9df"/><path d="M0 990L22.8 990.2C45.7 990.3 91.3 990.7 137 988.5C182.7 986.3 228.3 981.7 274 978C319.7 974.3 365.3 971.7 411.2 977.7C457 983.7 503 998.3 548.8 1004.5C594.7 1010.7 640.3 1008.3 686 1009.3C731.7 1010.3 777.3 1014.7 823 1015C868.7 1015.3 914.3 1011.7 960 1009.7C1005.7 1007.7 1051.3 1007.3 1097 1009.5C1142.7 1011.7 1188.3 1016.3 1234 1018.2C1279.7 1020 1325.3 1019 1371.2 1010.8C1417 1002.7 1463 987.3 1508.8 987.7C1554.7 988 1600.3 1004 1646 1008.8C1691.7 1013.7 1737.3 1007.3 1783 1000C1828.7 992.7 1874.3 984.3 1897.2 980.2L1920 976L1920 1081L1897.2 1081C1874.3 1081 1828.7 1081 1783 1081C1737.3 1081 1691.7 1081 1646 1081C1600.3 1081 1554.7 1081 1508.8 1081C1463 1081 1417 1081 1371.2 1081C1325.3 1081 1279.7 1081 1234 1081C1188.3 1081 1142.7 1081 1097 1081C1051.3 1081 1005.7 1081 960 1081C914.3 1081 868.7 1081 823 1081C777.3 1081 731.7 1081 686 1081C640.3 1081 594.7 1081 548.8 1081C503 1081 457 1081 411.2 1081C365.3 1081 319.7 1081 274 1081C228.3 1081 182.7 1081 137 1081C91.3 1081 45.7 1081 22.8 1081L0 1081Z" fill="#a9c3dc"/><path d="M0 1009L22.8 1012.8C45.7 1016.7 91.3 1024.3 137 1023.7C182.7 1023 228.3 1014 274 1013.5C319.7 1013 365.3 1021 411.2 1021C457 1021 503 1013 548.8 1008.2C594.7 1003.3 640.3 1001.7 686 1003.2C731.7 1004.7 777.3 1009.3 823 1009C868.7 1008.7 914.3 1003.3 960 1001.8C1005.7 1000.3 1051.3 1002.7 1097 1007.2C1142.7 1011.7 1188.3 1018.3 1234 1022.2C1279.7 1026 1325.3 1027 1371.2 1028.3C1417 1029.7 1463 1031.3 1508.8 1026C1554.7 1020.7 1600.3 1008.3 1646 1007C1691.7 1005.7 1737.3 1015.3 1783 1018C1828.7 1020.7 1874.3 1016.3 1897.2 1014.2L1920 1012L1920 1081L1897.2 1081C1874.3 1081 1828.7 1081 1783 1081C1737.3 1081 1691.7 1081 1646 1081C1600.3 1081 1554.7 1081 1508.8 1081C1463 1081 1417 1081 1371.2 1081C1325.3 1081 1279.7 1081 1234 1081C1188.3 1081 1142.7 1081 1097 1081C1051.3 1081 1005.7 1081 960 1081C914.3 1081 868.7 1081 823 1081C777.3 1081 731.7 1081 686 1081C640.3 1081 594.7 1081 548.8 1081C503 1081 457 1081 411.2 1081C365.3 1081 319.7 1081 274 1081C228.3 1081 182.7 1081 137 1081C91.3 1081 45.7 1081 22.8 1081L0 1081Z" fill="#c0ccd9"/><path d="M0 1039L22.8 1037C45.7 1035 91.3 1031 137 1030.8C182.7 1030.7 228.3 1034.3 274 1038.8C319.7 1043.3 365.3 1048.7 411.2 1050.7C457 1052.7 503 1051.3 548.8 1047.8C594.7 1044.3 640.3 1038.7 686 1037C731.7 1035.3 777.3 1037.7 823 1038.8C868.7 1040 914.3 1040 960 1043.3C1005.7 1046.7 1051.3 1053.3 1097 1055C1142.7 1056.7 1188.3 1053.3 1234 1048.5C1279.7 1043.7 1325.3 1037.3 1371.2 1037.8C1417 1038.3 1463 1045.7 1508.8 1046.7C1554.7 1047.7 1600.3 1042.3 1646 1041.8C1691.7 1041.3 1737.3 1045.7 1783 1046C1828.7 1046.3 1874.3 1042.7 1897.2 1040.8L1920 1039L1920 1081L1897.2 1081C1874.3 1081 1828.7 1081 1783 1081C1737.3 1081 1691.7 1081 1646 1081C1600.3 1081 1554.7 1081 1508.8 1081C1463 1081 1417 1081 1371.2 1081C1325.3 1081 1279.7 1081 1234 1081C1188.3 1081 1142.7 1081 1097 1081C1051.3 1081 1005.7 1081 960 1081C914.3 1081 868.7 1081 823 1081C777.3 1081 731.7 1081 686 1081C640.3 1081 594.7 1081 548.8 1081C503 1081 457 1081 411.2 1081C365.3 1081 319.7 1081 274 1081C228.3 1081 182.7 1081 137 1081C91.3 1081 45.7 1081 22.8 1081L0 1081Z" fill="#d6d6d6"/></svg>
