<svg id="visual" viewBox="0 0 1920 80" width="1920" height="80" xmlns="http://www.w3.org/2000/svg" xmlns:xlink="http://www.w3.org/1999/xlink" version="1.1"><rect x="0" y="0" width="1920" height="80" fill="#eeeeee"></rect><path d="M0 79L10.3 77.3C20.7 75.7 41.3 72.3 62 71.8C82.7 71.3 103.3 73.7 124 74.8C144.7 76 165.3 76 186 74.7C206.7 73.3 227.3 70.7 248 68.8C268.7 67 289.3 66 310 64.5C330.7 63 351.3 61 372 60.5C392.7 60 413.3 61 433.8 63.7C454.3 66.3 474.7 70.7 495.2 72.5C515.7 74.3 536.3 73.7 557 69.8C577.7 66 598.3 59 619 55.8C639.7 52.7 660.3 53.3 681 57.2C701.7 61 722.3 68 743 67.2C763.7 66.3 784.3 57.7 805 55.5C825.7 53.3 846.3 57.7 867 60.7C887.7 63.7 908.3 65.3 929 67.7C949.7 70 970.3 73 991 70.8C1011.7 68.7 1032.3 61.3 1053 58C1073.7 54.7 1094.3 55.3 1115 55.7C1135.7 56 1156.3 56 1177 58.7C1197.7 61.3 1218.3 66.7 1239 67.7C1259.7 68.7 1280.3 65.3 1301 64.2C1321.7 63 1342.3 64 1363 62C1383.7 60 1404.3 55 1424.8 55.3C1445.3 55.7 1465.7 61.3 1486.2 64.5C1506.7 67.7 1527.3 68.3 1548 67.5C1568.7 66.7 1589.3 64.3 1610 63.5C1630.7 62.7 1651.3 63.3 1672 65.5C1692.7 67.7 1713.3 71.3 1734 70.3C1754.7 69.3 1775.3 63.7 1796 62.3C1816.7 61 1837.3 64 1858 62.5C1878.7 61 1899.3 55 1909.7 52L1920 49L1920 81L1909.7 81C1899.3 81 1878.7 81 1858 81C1837.3 81 1816.7 81 1796 81C1775.3 81 1754.7 81 1734 81C1713.3 81 1692.7 81 1672 81C1651.3 81 1630.7 81 1610 81C1589.3 81 1568.7 81 1548 81C1527.3 81 1506.7 81 1486.2 81C1465.7 81 1445.3 81 1424.8 81C1404.3 81 1383.7 81 1363 81C1342.3 81 1321.7 81 1301 81C1280.3 81 1259.7 81 1239 81C1218.3 81 1197.7 81 1177 81C1156.3 81 1135.7 81 1115 81C1094.3 81 1073.7 81 1053 81C1032.3 81 1011.7 81 991 81C970.3 81 949.7 81 929 81C908.3 81 887.7 81 867 81C846.3 81 825.7 81 805 81C784.3 81 763.7 81 743 81C722.3 81 701.7 81 681 81C660.3 81 639.7 81 619 81C598.3 81 577.7 81 557 81C536.3 81 515.7 81 495.2 81C474.7 81 454.3 81 433.8 81C413.3 81 392.7 81 372 81C351.3 81 330.7 81 310 81C289.3 81 268.7 81 248 81C227.3 81 206.7 81 186 81C165.3 81 144.7 81 124 81C103.3 81 82.7 81 62 81C41.3 81 20.7 81 10.3 81L0 81Z" fill="#73b0e1" stroke-linecap="round" stroke-linejoin="miter"></path></svg>